# xmcd
#
# Track frame offsets:
#	150
#	12250
#	25470
#	38558
#	48307
#	60384
#	74643
#	88772
#	101399
#	112607
#	125967
#	137252
#	150362
#	164661
#	177735
#	190157
#	201920
#	216990
#	230570
#	243694
#	257450
#	273317
#	285255
#	297371
#
# Disc length: 4159 seconds
# Revision: 1
# Processed by: cddbd v1.5.2PL0 Copyright (c) Steve Scherf et al.
# Submitted via: dBpowerAMP V12.0
#
DISCID=5d103d18
DTITLE=Syreeta - The Rita Wright Years - Rare Motown 1967-1970
DYEAR=2016
DGENRE=Soul
TTITLE0=I Can't Give Back The Love I Feel For You
TTITLE1=Ain't I Gonna Win Your Love
TTITLE2=It Don't Mean Nothin' to me
TTITLE3=Something on my Mind
TTITLE4=Beware of a Stranger
TTITLE5=That's What he Told me
TTITLE6=I Want to go Back There Again
TTITLE7=Bad Boy
TTITLE8=Give Back The Good Things
TTITLE9=Hurtin' me (Became a Habit)
TTITLE10=Can't Stop
TTITLE11=Where is The Love
TTITLE12=Mind, Body and Soul
TTITLE13=You
TTITLE14=Save The Country
TTITLE15=Since You Came Back
TTITLE16=Can You Feel It, Babe
TTITLE17=Love Child
TTITLE18=Where There's a Will There's a Way
TTITLE19=Love's Gone Bad
TTITLE20=Love my Lovin' Man
TTITLE21=You Made me Feel Like (Everything is Alright)
TTITLE22=(Touched) by The Hand of Love
TTITLE23=May His Love Shine Forever
EXTD=
EXTT0=
EXTT1=
EXTT2=
EXTT3=
EXTT4=
EXTT5=
EXTT6=
EXTT7=
EXTT8=
EXTT9=
EXTT10=
EXTT11=
EXTT12=
EXTT13=
EXTT14=
EXTT15=
EXTT16=
EXTT17=
EXTT18=
EXTT19=
EXTT20=
EXTT21=
EXTT22=
EXTT23=
PLAYORDER=
